<?xml version="1.0" standalone="no"?><!DOCTYPE svg PUBLIC "-//W3C//DTD SVG 1.1//EN" "http://www.w3.org/Graphics/SVG/1.1/DTD/svg11.dtd"><svg t="1727785738203" class="icon" viewBox="0 0 1024 1024" version="1.1" xmlns="http://www.w3.org/2000/svg" p-id="3144" xmlns:xlink="http://www.w3.org/1999/xlink" width="200" height="200"><path d="M799 161c16.954 0 32.986 6.696 45.145 18.855C856.304 192.014 863 208.046 863 225v574c0 16.954-6.696 32.986-18.855 45.145C831.986 856.304 815.954 863 799 863H225c-16.954 0-32.986-6.696-45.145-18.855C167.696 831.986 161 815.954 161 799V225c0-16.954 6.696-32.986 18.855-45.145C192.014 167.696 208.046 161 225 161h574m0-64H225c-70.4 0-128 57.6-128 128v574c0 70.4 57.6 128 128 128h574c70.4 0 128-57.6 128-128V225c0-70.4-57.6-128-128-128z" p-id="3145" fill="#cdcdcd"></path></svg>