<?xml version="1.0" standalone="no"?><!DOCTYPE svg PUBLIC "-//W3C//DTD SVG 1.1//EN" "http://www.w3.org/Graphics/SVG/1.1/DTD/svg11.dtd"><svg t="1726043140792" class="icon" viewBox="0 0 1024 1024" version="1.1" xmlns="http://www.w3.org/2000/svg" p-id="2644" xmlns:xlink="http://www.w3.org/1999/xlink" width="150" height="150"><path d="M226.435945 23.19495c66.796386-12.928333 139.549944-19.519247 218.007179-19.519248 78.583983 0 151.210793 6.717663 218.133928 19.519248 66.923134 12.928333 119.7772 30.673103 158.562198 53.107563 38.784998 22.307711 58.304246 46.3899 58.304245 72.62681v72.62681c0 26.110162-19.392499 50.192351-58.304245 72.62681-38.911747 22.307711-91.765813 39.925733-158.562198 53.107563-66.796386 12.801584-139.549944 19.265751-218.133928 19.265751s-151.210793-6.717663-218.133927-19.519247c-66.923134-13.055081-119.650452-30.799851-158.562199-53.234312-38.911747-22.43446-58.304246-46.516648-58.304245-72.753558v-72.626811c0-26.110162 19.392499-50.192351 58.304245-72.62681 39.038495-21.927466 91.765813-39.545488 158.688947-52.600569z m0 0" p-id="2645" fill="#2c2c2c"></path><path d="M193.734868 414.21364c77.696745 16.22379 161.477411 24.462433 250.835005 24.462434s173.13826-8.111895 250.835004-24.462434C773.101621 397.98985 834.574576 374.03441 879.570244 342.220572v96.455502c0 26.110162-19.392499 50.192351-58.304246 72.500062s-91.765813 39.925733-158.562198 53.107562c-66.669637 12.928333-139.423196 19.392499-218.007179 19.3925s-151.210793-6.717663-218.133928-19.519248C159.512811 551.101869 106.658745 533.357099 67.746998 511.049387c-38.911747-22.307711-58.304246-46.3899-58.304245-72.500062v-96.328753c44.995668 31.940587 106.468622 55.896027 184.292115 71.993068z m0 0M562.952841 821.456121c51.840079-54.755291 138.535957-142.97215 197.727441-200.515906v144.493131h252.482733c0 56.910014 1.394232 112.425795 1.394232 112.425795s-185.559599-0.76049-253.750216-0.76049v143.225647c-61.599703-59.825226-128.015844-123.959896-197.85419-198.868177z m-495.205843-92.526303c38.911747 22.307711 91.765813 40.052482 158.562199 53.107563 66.796386 12.928333 139.549944 19.519247 218.133927 19.519247 12.294591 0 24.589182-0.126748 36.630276-0.506993V655.796014c-12.041094 0.253497-24.335685 0.506993-36.630276 0.506994-89.484342 0-173.13826-8.111895-250.835004-24.462434C115.911375 615.616784 54.438421 591.661344 9.442753 559.847506v96.328753c0 26.236911 19.392499 50.319099 58.304245 72.753559zM481.200149 873.2962c-12.041094 0.253497-24.335685 0.506993-36.630276 0.506993-89.484342 0-173.13826-8.111895-250.835005-24.462433C115.911375 833.11697 54.438421 809.16153 9.442753 777.347692v96.328753c0 26.110162 19.392499 50.192351 58.304245 72.500062 38.784998 22.307711 91.765813 40.052482 158.562199 53.107563 66.796386 12.928333 139.549944 19.519247 218.133927 19.519247 12.294591 0 24.589182-0.126748 36.630276-0.506993V873.2962h0.126749z m0 0" p-id="2646" fill="#2c2c2c"></path></svg>