<?xml version="1.0" standalone="no"?><!DOCTYPE svg PUBLIC "-//W3C//DTD SVG 1.1//EN" "http://www.w3.org/Graphics/SVG/1.1/DTD/svg11.dtd"><svg t="1725346944567" class="icon" viewBox="0 0 1024 1024" version="1.1" xmlns="http://www.w3.org/2000/svg" p-id="5123" xmlns:xlink="http://www.w3.org/1999/xlink" width="256" height="256"><path d="M730.156522 171.408696 730.156522 84.591304c0-46.747826-40.069565-84.591304-86.817391-84.591304L380.66087 0c-48.973913 0-86.817391 37.843478-86.817391 84.591304l0 84.591304L73.46087 169.182609l0 84.591304 86.817391 0 0 681.182609c0 46.747826 40.069565 84.591304 86.817391 84.591304l525.356522 0c48.973913 0 86.817391-37.843478 86.817391-84.591304L859.269565 256l86.817391 0L946.086957 171.408696 730.156522 171.408696zM463.026087 877.078261l-97.947826 0L365.078261 340.591304l97.947826 0L463.026087 877.078261zM658.921739 877.078261l-97.947826 0L560.973913 340.591304l97.947826 0L658.921739 877.078261z" fill="#bfbfbf" p-id="5124"></path></svg>