<?xml version="1.0" standalone="no"?><!DOCTYPE svg PUBLIC "-//W3C//DTD SVG 1.1//EN" "http://www.w3.org/Graphics/SVG/1.1/DTD/svg11.dtd"><svg t="1725537252952" class="icon" viewBox="0 0 1024 1024" version="1.1" xmlns="http://www.w3.org/2000/svg" p-id="5425" xmlns:xlink="http://www.w3.org/1999/xlink" width="256" height="256"><path d="M853.333333 51.242667H170.666667c-18.884267 0-34.133333 14.702933-34.133334 32.887466v855.773867c0 18.193067 15.249067 32.896 34.133334 32.896h682.666666c18.884267 0 34.133333-14.702933 34.133334-32.896V84.096C887.466667 65.902933 872.2176 51.2 853.333333 51.2v0.042667z m-640.0256 74.043733h597.333334v213.947733h-597.333334V125.2864z m597.333334 493.687467h-597.333334V405.026133h597.333334v213.947734z m0 279.739733h-597.333334V684.765867h597.333334v213.947733zM290.133333 232.260267c0 22.715733 19.114667 41.147733 42.658134 41.147733 23.569067 0 42.683733-18.432 42.683733-41.147733s-19.114667-41.1904-42.683733-41.1904c-23.543467 0-42.658133 18.432-42.658134 41.147733v0.042667zM290.133333 512c0 22.715733 19.114667 41.147733 42.658134 41.147733C356.352 553.147733 375.466667 534.715733 375.466667 512s-19.114667-41.147733-42.683734-41.147733c-23.543467 0-42.658133 18.432-42.658133 41.147733z m0 279.739733c0 22.715733 19.114667 41.147733 42.658134 41.147734 23.569067 0 42.683733-18.432 42.683733-41.147734s-19.114667-41.147733-42.683733-41.147733c-23.543467 0-42.658133 18.432-42.658134 41.147733z" fill="#2c2c2c" p-id="5426"></path></svg>