<?xml version="1.0" standalone="no"?><!DOCTYPE svg PUBLIC "-//W3C//DTD SVG 1.1//EN" "http://www.w3.org/Graphics/SVG/1.1/DTD/svg11.dtd"><svg t="1725342319356" class="icon" viewBox="0 0 1024 1024" version="1.1" xmlns="http://www.w3.org/2000/svg" p-id="2998" xmlns:xlink="http://www.w3.org/1999/xlink" width="256" height="256"><path d="M924.16 56.96A581.44 581.44 0 0 0 512 219.52 581.44 581.44 0 0 0 99.84 56.96 65.92 65.92 0 0 0 32 121.28v640a66.88 66.88 0 0 0 69.44 64 579.84 579.84 0 0 1 370.56 128 64 64 0 0 0 79.68 0 579.84 579.84 0 0 1 370.56-128 66.88 66.88 0 0 0 69.44-64v-640a65.92 65.92 0 0 0-67.52-64.32zM419.52 686.4a40 40 0 0 1-54.4 15.68 465.6 465.6 0 0 0-177.6-56 40 40 0 0 1 8.96-79.36 551.68 551.68 0 0 1 207.68 64 40 40 0 0 1 15.36 55.68z m0-160a40 40 0 0 1-54.4 15.68 465.6 465.6 0 0 0-177.6-56 40 40 0 0 1 8.96-79.36 551.68 551.68 0 0 1 207.68 64 40 40 0 0 1 15.36 55.68z m0-160a40 40 0 0 1-54.4 15.68 465.6 465.6 0 0 0-177.6-56 40 40 0 0 1 8.96-79.68 551.68 551.68 0 0 1 207.68 64 40 40 0 0 1 15.36 56z m416 279.68a465.6 465.6 0 0 0-177.6 56 40 40 0 0 1-38.72-70.08 551.68 551.68 0 0 1 207.68-64 40 40 0 0 1 8.96 79.36z m0-160a465.6 465.6 0 0 0-177.6 56 40 40 0 0 1-38.72-70.08 551.68 551.68 0 0 1 207.68-64 40 40 0 0 1 8.96 79.36z m0-160a465.6 465.6 0 0 0-177.6 56 40 40 0 0 1-38.72-70.08 551.68 551.68 0 0 1 207.68-64 40 40 0 0 1 8.96 79.36z" fill="#2c2c2c" p-id="2999"></path></svg>