<?xml version="1.0" standalone="no"?><!DOCTYPE svg PUBLIC "-//W3C//DTD SVG 1.1//EN" "http://www.w3.org/Graphics/SVG/1.1/DTD/svg11.dtd"><svg t="1727938783855" class="icon" viewBox="0 0 1024 1024" version="1.1" xmlns="http://www.w3.org/2000/svg" p-id="6052" xmlns:xlink="http://www.w3.org/1999/xlink" width="200" height="200"><path d="M742.4 119.466667c44.8 0 85.333333 18.133333 114.645333 47.488A161.621333 161.621333 0 0 1 904.533333 281.6v460.8c0 44.8-18.133333 85.333333-47.488 114.645333A161.621333 161.621333 0 0 1 742.4 904.533333H281.6c-44.8 0-85.333333-18.133333-114.645333-47.488A161.621333 161.621333 0 0 1 119.466667 742.4V281.6c0-44.8 18.133333-85.333333 47.488-114.645333A161.621333 161.621333 0 0 1 281.6 119.466667h460.8z m0 74.666666H281.6c-24.149333 0-46.037333 9.813333-61.866667 25.6-15.786667 15.829333-25.6 37.717333-25.6 61.866667v460.8c0 24.149333 9.813333 46.037333 25.6 61.866667 15.829333 15.786667 37.717333 25.6 61.866667 25.6h460.8c24.149333 0 46.037333-9.813333 61.866667-25.6 15.786667-15.829333 25.6-37.717333 25.6-61.866667V281.6c0-24.149333-9.813333-46.037333-25.6-61.866667a87.210667 87.210667 0 0 0-61.866667-25.6z m-5.290667 280.533334a37.205333 37.205333 0 0 1 37.333334 37.333333c0 58.026667-18.688 112.768-51.2 157.482667a267.392 267.392 0 0 1-134.058667 97.28 267.392 267.392 0 0 1-165.589333-0.213334 267.392 267.392 0 0 1-133.802667-97.578666 37.333333 37.333333 0 0 1 18.389333-57.301334c89.514667-41.813333 140.416-64.810667 152.746667-68.864 9.514667 26.282667-16.853333 65.109333-79.104 116.48a192.853333 192.853333 0 0 0 202.624 29.44A192.853333 192.853333 0 0 0 699.733333 512a37.205333 37.205333 0 0 1 37.333334-37.333333zM285.226667 546.261333a37.205333 37.205333 0 0 1-37.333334-37.333333c0-58.026667 18.688-112.768 51.2-157.44a267.392 267.392 0 0 1 134.016-97.28 267.392 267.392 0 0 1 165.632 0.213333 267.392 267.392 0 0 1 133.802667 97.578667 37.333333 37.333333 0 0 1-18.432 57.301333c-89.514667 41.813333-140.373333 64.768-152.704 68.864-9.514667-26.282667 16.810667-65.109333 79.061333-116.48a192.853333 192.853333 0 0 0-202.581333-29.44 192.853333 192.853333 0 0 0-115.328 176.682667 37.205333 37.205333 0 0 1-37.333333 37.333333z" p-id="6053" fill="#cdcdcd"></path></svg>