<?xml version="1.0" standalone="no"?><!DOCTYPE svg PUBLIC "-//W3C//DTD SVG 1.1//EN" "http://www.w3.org/Graphics/SVG/1.1/DTD/svg11.dtd"><svg t="1725536796281" class="icon" viewBox="0 0 1024 1024" version="1.1" xmlns="http://www.w3.org/2000/svg" p-id="4304" xmlns:xlink="http://www.w3.org/1999/xlink" width="256" height="256"><path d="M512 0C229.668571 0 0 229.668571 0 512s229.668571 512 512 512 512-229.668571 512-512S794.331429 0 512 0zM356.937143 234.057143h295.497143c11.702857 0 21.942857 8.777143 21.942857 21.942857s-8.777143 21.942857-21.942857 21.942857H356.937143c-11.702857 0-21.942857-8.777143-21.942857-21.942857s10.24-21.942857 21.942857-21.942857z m-42.422857 76.068571h380.342857c11.702857 0 21.942857 8.777143 21.942857 21.942857s-8.777143 21.942857-21.942857 21.942858h-380.342857c-11.702857 0-21.942857-8.777143-21.942857-21.942858s10.24-21.942857 21.942857-21.942857zM775.314286 727.04c0 19.017143-14.628571 33.645714-33.645715 33.645714H267.702857C248.685714 760.685714 234.057143 746.057143 234.057143 727.04V421.302857c0-19.017143 14.628571-33.645714 33.645714-33.645714h472.502857c19.017143 0 33.645714 14.628571 33.645715 33.645714v305.737143z" fill="#2c2c2c" p-id="4305"></path><path d="M741.668571 387.657143H267.702857c-19.017143 0-33.645714 14.628571-33.645714 33.645714v305.737143c0 19.017143 14.628571 33.645714 33.645714 33.645714h472.502857c19.017143 0 33.645714-14.628571 33.645715-33.645714V421.302857c1.462857-19.017143-13.165714-33.645714-32.182858-33.645714z" fill="#bfbfbf" p-id="4306" data-spm-anchor-id="a313x.search_index.0.i0.92b63a810peJ3l" class="selected"></path><path d="M314.514286 352.548571h380.342857c11.702857 0 21.942857-8.777143 21.942857-21.942857s-8.777143-21.942857-21.942857-21.942857h-380.342857c-11.702857 0-21.942857 8.777143-21.942857 21.942857s10.24 21.942857 21.942857 21.942857z" fill="#bfbfbf" p-id="4307" data-spm-anchor-id="a313x.search_index.0.i1.92b63a810peJ3l" class="selected"></path><path d="M356.937143 276.48h295.497143c11.702857 0 21.942857-8.777143 21.942857-21.942857s-10.24-20.48-21.942857-20.48H356.937143c-11.702857 0-21.942857 8.777143-21.942857 21.942857s10.24 20.48 21.942857 20.48z" fill="#bfbfbf" p-id="4308" data-spm-anchor-id="a313x.search_index.0.i2.92b63a810peJ3l" class="selected"></path></svg>