<?xml version="1.0" standalone="no"?><!DOCTYPE svg PUBLIC "-//W3C//DTD SVG 1.1//EN" "http://www.w3.org/Graphics/SVG/1.1/DTD/svg11.dtd"><svg t="1738397583591" class="icon" viewBox="0 0 1024 1024" version="1.1" xmlns="http://www.w3.org/2000/svg" p-id="9579" xmlns:xlink="http://www.w3.org/1999/xlink" width="150" height="150"><path d="M554.666667 170.666667H298.666667a85.333333 85.333333 0 0 0-85.333334 85.333333v256a42.666667 42.666667 0 1 1-85.333333 0V256a170.666667 170.666667 0 0 1 170.666667-170.666667h256a170.666667 170.666667 0 0 1 170.666666 170.666667 128 128 0 0 1 128 128v298.666667a213.333333 213.333333 0 0 1-213.333333 213.333333h-213.333333a128 128 0 0 1-128-128 170.581333 170.581333 0 0 1-149.034667-87.466667l-0.085333-0.128a42.666667 42.666667 0 0 1 76.373333-38.186666l0.128-0.042667c15.061333 24.32 41.941333 40.490667 72.618667 40.490667h256a85.333333 85.333333 0 0 0 85.333333-85.333334V256a85.333333 85.333333 0 0 0-85.333333-85.333333z m170.666666 170.666666v256a170.666667 170.666667 0 0 1-170.666666 170.666667H384a42.666667 42.666667 0 0 0 42.666667 42.666667h213.333333a128 128 0 0 0 128-128V384a42.666667 42.666667 0 0 0-42.666667-42.666667zM341.333333 298.666667a42.666667 42.666667 0 0 0 0 85.333333h170.666667a42.666667 42.666667 0 1 0 0-85.333333H341.333333z m-42.666666 213.333333a42.666667 42.666667 0 0 1 42.666666-42.666667h170.666667a42.666667 42.666667 0 1 1 0 85.333334H341.333333a42.666667 42.666667 0 0 1-42.666666-42.666667z" fill="#2c2c2c" p-id="9580"></path></svg>