<?xml version="1.0" standalone="no"?><!DOCTYPE svg PUBLIC "-//W3C//DTD SVG 1.1//EN" "http://www.w3.org/Graphics/SVG/1.1/DTD/svg11.dtd"><svg t="1725341183903" class="icon" viewBox="0 0 1024 1024" version="1.1" xmlns="http://www.w3.org/2000/svg" p-id="36020" xmlns:xlink="http://www.w3.org/1999/xlink" width="256" height="256"><path d="M414.72 168.96H199.68c-25.6 0-46.08 20.48-46.08 46.08v220.16c0 25.6 20.48 40.96 46.08 40.96h220.16c20.48 0 40.96-15.36 40.96-40.96V215.04c0-25.6-20.48-46.08-46.08-46.08zM824.32 168.96h-220.16c-25.6 0-46.08 20.48-46.08 46.08v220.16c0 25.6 20.48 46.08 46.08 46.08h220.16c25.6-5.12 46.08-20.48 46.08-46.08V215.04c0-25.6-20.48-46.08-46.08-46.08zM414.72 578.56H199.68c-25.6 0-46.08 20.48-46.08 46.08v220.16c0 25.6 20.48 46.08 46.08 46.08h220.16c20.48-5.12 40.96-20.48 40.96-46.08v-220.16c0-25.6-20.48-46.08-46.08-46.08zM824.32 578.56h-220.16c-25.6 0-46.08 20.48-46.08 46.08v220.16c0 25.6 20.48 46.08 46.08 46.08h220.16c25.6 0 46.08-20.48 46.08-46.08v-220.16c0-25.6-20.48-46.08-46.08-46.08z" fill="#2c2c2c" p-id="36021"></path></svg>