<?xml version="1.0" standalone="no"?><!DOCTYPE svg PUBLIC "-//W3C//DTD SVG 1.1//EN" "http://www.w3.org/Graphics/SVG/1.1/DTD/svg11.dtd"><svg t="1725340715808" class="icon" viewBox="0 0 1024 1024" version="1.1" xmlns="http://www.w3.org/2000/svg" p-id="8191" xmlns:xlink="http://www.w3.org/1999/xlink" width="256" height="256"><path d="M1006.016 464.224V47.744c0-17.568-15.616-31.744-34.912-31.744h-236.832c-19.296 0-34.88 14.176-34.88 31.744v416.48c0 17.568 15.584 31.744 34.88 31.744h236.832c19.264-0.096 34.912-14.272 34.912-31.744z m-340.736 0V47.744c0-17.536-15.52-31.744-34.848-31.744h-236.864c-19.296 0-34.88 14.208-34.88 31.744v416.48c0 17.568 15.584 31.776 34.88 31.776h236.864c19.328-0.096 34.848-14.304 34.848-31.776z m-340.64 0.032V47.776C324.64 30.208 309.024 16 289.824 16H52.864c-19.296 0-34.88 14.208-34.88 31.776v416.48c0 17.536 15.584 31.744 34.88 31.744h236.928c19.2-0.096 34.848-14.304 34.848-31.744z m681.376 512V559.776c0-17.536-15.616-31.776-34.912-31.776h-236.832c-19.296 0-34.88 14.24-34.88 31.776v416.48c0 17.568 15.584 31.744 34.88 31.744h236.832c19.264 0 34.912-14.176 34.912-31.744z m-340.736 0V559.776c0-17.568-15.52-31.776-34.848-31.776h-236.864c-19.296 0-34.88 14.208-34.88 31.776v416.48c0 17.568 15.584 31.744 34.88 31.744h236.864c19.328 0 34.848-14.176 34.848-31.744z m-340.64 0V559.776c0-17.536-15.616-31.776-34.912-31.776H52.864c-19.296 0-34.88 14.24-34.88 31.776v416.48c0 17.568 15.584 31.744 34.88 31.744h236.96c19.168 0 34.816-14.176 34.816-31.744z" p-id="8192" fill="#bfbfbf"></path></svg>