<?xml version="1.0" standalone="no"?><!DOCTYPE svg PUBLIC "-//W3C//DTD SVG 1.1//EN" "http://www.w3.org/Graphics/SVG/1.1/DTD/svg11.dtd"><svg t="1738303777000" class="icon" viewBox="0 0 1024 1024" version="1.1" xmlns="http://www.w3.org/2000/svg" p-id="8453" xmlns:xlink="http://www.w3.org/1999/xlink" width="150" height="150"><path d="M140.8 933.2c-53.2 0-96.7-47.8-96.9-106.8l-3.1-637.7c-0.1-27.8 9.3-54.2 26.5-74.3 18.1-21.1 43.5-33.3 69.8-33.5l223.5-1.2h0.4c53.2 0 96.7 47.8 97 106.8l0.2 37.6 425.4-1.9h0.4c53.2 0 96.6 47.8 96.9 106.8l2.3 492.9c0.2 27.7-9.3 54.1-26.5 74.3-18.1 21.1-43.5 33.3-69.8 33.5l-745.6 3.5h-0.5z m220.3-791.9h-0.1l-223.5 1.2c-11.5 0-19.6 7.5-23.4 11.9-7.5 8.8-11.8 21.2-11.8 34l3.1 637.7c0.1 24.8 16.3 45.7 35.4 45.7h0.1l745.6-3.5c11.5 0 19.6-7.5 23.4-11.9 7.5-8.8 11.8-21.2 11.8-34l-2.3-492.9c-0.1-24.8-16.4-45.6-35.4-45.6h-0.1l-456 2h-0.1c-16.9 0-30.6-13.6-30.7-30.5l-0.4-68.4c-0.3-24.9-16.5-45.7-35.6-45.7z m522.6 111.8h0.3-0.3z" fill="#dbdbdb" p-id="8454"></path><path d="M475.5 285.7H71.6c-17 0-30.7-13.8-30.7-30.7s13.8-30.7 30.7-30.7h403.9c17 0 30.7 13.8 30.7 30.7s-13.8 30.7-30.7 30.7zM427.8 566.6H266.5c-33.9 0-61.5-27.6-61.5-61.5v-87c0-33.9 27.6-61.5 61.5-61.5h161.3c33.9 0 61.5 27.6 61.5 61.5v87c-0.1 33.9-27.7 61.5-61.5 61.5z m0-61.5v30.7-30.7z m-161.3-87v87h161.2l0.1-87H266.5zM757.5 566.6H596.2c-33.9 0-61.5-27.6-61.5-61.5v-87c0-33.9 27.6-61.5 61.5-61.5h161.3c33.9 0 61.5 27.6 61.5 61.5v87c0 33.9-27.6 61.5-61.5 61.5z m0-61.5v30.7-30.7z m-161.3-87v87h161.2l0.1-87H596.2zM427.8 811.2H266.5c-33.9 0-61.5-27.6-61.5-61.5v-87c0-33.9 27.6-61.5 61.5-61.5h161.3c33.9 0 61.5 27.6 61.5 61.5v87c-0.1 33.9-27.7 61.5-61.5 61.5z m0-61.5v30.7-30.7z m-161.3-87v87h161.2l0.1-87H266.5zM757.5 811.2H596.2c-33.9 0-61.5-27.6-61.5-61.5v-87c0-33.9 27.6-61.5 61.5-61.5h161.3c33.9 0 61.5 27.6 61.5 61.5v87c0 33.9-27.6 61.5-61.5 61.5z m0-61.5v30.7-30.7z m-161.3-87v87h161.2l0.1-87H596.2z" fill="#dbdbdb" p-id="8455"></path></svg>