<?xml version="1.0" standalone="no"?><!DOCTYPE svg PUBLIC "-//W3C//DTD SVG 1.1//EN" "http://www.w3.org/Graphics/SVG/1.1/DTD/svg11.dtd"><svg t="1731064401101" class="icon" viewBox="0 0 1064 1024" version="1.1" xmlns="http://www.w3.org/2000/svg" p-id="4281" xmlns:xlink="http://www.w3.org/1999/xlink" width="266" height="256"><path d="M819.2 122.88V40.96a40.96 40.96 0 0 1 81.92 0v81.92h122.88a40.96 40.96 0 0 1 0 81.92h-122.88v118.3744a40.96 40.96 0 0 1-81.92 0V204.8h-122.88a40.96 40.96 0 0 1 0-81.92h122.88z m-363.68384 854.016L45.09696 566.35392a122.88 122.88 0 0 1-36.0448-86.8352V189.8496a122.88 122.88 0 0 1 122.88-122.88h289.66912a122.88 122.88 0 0 1 86.87616 36.00384l410.46016 410.4192a122.88 122.88 0 0 1 0 173.79328l-289.62816 289.62816a122.88 122.88 0 0 1-173.79328 0zM103.0144 508.43648l410.4192 410.46016a40.96 40.96 0 0 0 57.9584 0l289.5872-289.62816a40.96 40.96 0 0 0 0-57.91744L450.56 160.93184a40.96 40.96 0 0 0-28.95872-12.00128H131.97312a40.96 40.96 0 0 0-40.96 40.96v289.62816a40.96 40.96 0 0 0 12.00128 28.95872zM368.64 573.44a163.84 163.84 0 1 1 0-327.68 163.84 163.84 0 0 1 0 327.68z m0-81.92a81.92 81.92 0 1 0 0-163.84 81.92 81.92 0 0 0 0 163.84z" fill="#cdcdcd" p-id="4282"></path></svg>