<?xml version="1.0" standalone="no"?><!DOCTYPE svg PUBLIC "-//W3C//DTD SVG 1.1//EN" "http://www.w3.org/Graphics/SVG/1.1/DTD/svg11.dtd"><svg t="1725341108886" class="icon" viewBox="0 0 1024 1024" version="1.1" xmlns="http://www.w3.org/2000/svg" p-id="27777" xmlns:xlink="http://www.w3.org/1999/xlink" width="256" height="256"><path d="M938.666667 896a42.666667 42.666667 0 0 1-42.666667 42.666667l-768 0a42.666667 42.666667 0 0 1-42.666667-42.666667L85.333333 128a42.666667 42.666667 0 0 1 42.666667-42.666667L896 85.333333a42.666667 42.666667 0 0 1 42.666667 42.666667l0 768z m-85.333334-42.666667L853.333333 170.666667l-682.666666 0 0 682.666666L853.333333 853.333333zM480 482.453333l0 59.093334c0 4.821333-3.52 8.853333-8.14933299 9.685333l-1.79200001 0.149333-98.282667 0 0 73.856a13.866667 13.866667 0 0 1-1.173333 5.461334l-0.32 0.704c-0.213333 0.490667-0.426667 0.96-0.704 1.42933299-2.325333 3.712-6.18666699 6.037333-10.432 6.82666701a19.285333 19.285333 0 0 1-2.773334 0.298666l-0.576 0.042667-0.490666-0.042667-0.490667-0.04266601-1.066667-0.10666699a16.896 16.896 0 0 1-5.802666-1.770667l-1.706667-1.024-112.405333-110.848c-5.54666699-2.944-10.75200001-8.682667-9.70666699-14.165333-0.938667-4.86399999 3.09333301-9.962667 7.89333299-13.098667l1.813334-1.066666 112.426666-110.848a16.32 16.32 0 0 1 5.461334-2.432l2.048-0.362667 1.066666-0.10666699c0.32 0 0.64-0.085333 0.96-0.08533301l0.554667 0.042667a15.744 15.744 0 0 1 13.226667 7.12533301c0.298667 0.469333 0.469333 0.938667 0.704 1.42933299l0.341333 0.704a15.04 15.04 0 0 1 0.917333 3.2l0.170667 1.194667 0.064 1.066667 0 73.856 98.282667 0c4.885333 0 8.93866701 3.477333 9.770666 8.064l0.170667 1.770666 0 59.093334 0-59.093334z m310.165333 43.733334l-112.426666 110.826666c-2.133333 1.493333-4.693333 2.474667-7.509334 2.794667l-1.066666 0.10666699c-0.32 0-0.64 0.085333-0.96 0.08533301l-0.554667-0.042667a19.285333 19.285333 0 0 1-2.794667-0.298666 15.509333 15.509333 0 0 1-10.45333299-6.826667c-0.277333-0.469333-0.448-0.938667-0.68266701-1.429333l-0.341333-0.704a14.293333 14.293333 0 0 1-0.938667-3.392c-0.10666699-0.682667-0.213333-1.365333-0.213333-2.069334l0-73.856-98.282667 0a9.898667 9.898667 0 0 1-9.941333-9.834666l0-59.093334a9.898667 9.898667 0 0 1 9.941333-9.834666l98.282667 0 0-73.856c0-0.70399999 0.106667-1.386667 0.234667-2.261334a15.04 15.04 0 0 1 0.917333-3.2l0.341333-0.704c0.213333-0.490667 0.426667-0.96 0.704-1.42933299a15.744 15.744 0 0 1 13.226667-7.12533301L668.202667 384c0.341333 0 0.64 0.06399999 0.981333 0.08533301l1.066667 0.10666699a16.618667 16.618667 0 0 1 7.488 2.773333l112.426666 110.869334c5.54666699 2.944 10.75200001 8.682667 9.70666699 14.165333 1.06666699 5.482667-4.16 11.221333-9.70666699 14.165333z" p-id="27778" fill="#2c2c2c"></path></svg>